<?xml version="1.0" encoding="UTF-8"?>
<svg width="61.44px" height="32px" viewBox="0 0 96 50" version="1.1" xmlns="http://www.w3.org/2000/svg" xmlns:xlink="http://www.w3.org/1999/xlink">
    <!-- Generator: Sketch 54.1 (76490) - https://sketchapp.com -->
    <title>logo</title>
    <desc>Created with Sketch.</desc>
    <g id="홈페이지" stroke="none" stroke-width="1" fill="none" fill-rule="evenodd">
        <g id="Artboard-Copy-6" transform="translate(-210.000000, -18.000000)" fill="#FFFFFF" fill-rule="nonzero">
            <g id="logo" transform="translate(210.000000, 18.000000)">
                <path d="M8.56164384,17.6482101 C3.83317851,17.6482101 1.32029476e-13,13.8494732 1.31450406e-13,9.16349373 C1.30871336e-13,4.47751424 3.83317851,0.678777313 8.56164384,0.678777313 C13.2901092,0.678777313 17.1232877,4.47751424 17.1232877,9.16349373 C17.1180996,13.8473419 13.2879585,17.6430687 8.56164384,17.6482101 L8.56164384,17.6482101 Z M8.56164384,5.63013876 C7.11841206,5.63013907 5.81733456,6.49183417 5.26525378,7.81331629 C4.713173,9.1347984 5.01884561,10.6557433 6.03970122,11.6667591 C7.06055683,12.6777748 8.5954929,12.9796973 9.92859177,12.4317052 C11.2616906,11.883713 12.1303397,10.5937576 12.1293877,9.16349373 C12.1267922,7.21223157 10.5305986,5.63142333 8.56164384,5.63013876 L8.56164384,5.63013876 Z" id="Shape"></path>
                <path d="M23.630137,20.3633194 C22.3070486,20.36332 21.2341237,19.2515729 21.2328767,17.8793177 L21.2328767,3.16512245 C21.2328767,1.79195195 22.3061667,0.678777313 23.630137,0.678777313 C24.9541073,0.678777313 26.0273973,1.79195195 26.0273973,3.16512245 L26.0273973,17.8793177 C26.0261502,19.2515729 24.9532254,20.36332 23.630137,20.3633194 L23.630137,20.3633194 Z" id="Shape"></path>
                <path d="M49.9235311,8.65687045 C49.5641791,7.20558196 48.065465,6.31183374 46.57429,6.65957266 L43.1897193,7.4484021 L43.1897193,3.66247942 C43.1897193,2.16933601 41.9464577,0.95890411 40.4128168,0.95890411 C38.8791759,0.95890411 37.6359143,2.16933601 37.6359143,3.66247942 L37.6359143,7.45069521 L34.246633,6.65957266 C33.281889,6.4342792 32.2669763,6.72719343 31.5842026,7.42797739 C30.9014289,8.12876135 30.6545239,9.13094928 30.9364942,10.0570267 C31.2184645,10.9831041 31.9864722,11.6923778 32.9512162,11.9176712 L35.7493164,12.5712072 L33.0996003,16.3984059 C32.5288599,17.1990786 32.4449191,18.2368533 32.8798972,19.1146346 C33.3148754,19.9924158 34.2014398,20.5743271 35.2003545,20.6377053 C36.1992691,20.7010834 37.1559067,20.2361177 37.7042181,19.4207233 L40.4151721,15.5086796 L43.1261261,19.4207233 C43.6744375,20.2361177 44.631075,20.7010834 45.6299897,20.6377053 C46.6289043,20.5743271 47.5154688,19.9924158 47.9504469,19.1146346 C48.3854251,18.2368533 48.3014843,17.1990786 47.7307439,16.3984059 L45.0763171,12.5712072 L47.8697067,11.9176712 C49.3604884,11.5677445 50.2791777,10.1091666 49.9235311,8.65687045 L49.9235311,8.65687045 Z" id="Shape"></path>
                <path d="M8.25600453,33.9388627 C7.2622722,33.9386486 6.36277552,33.3561973 5.96393245,32.4546765 C5.56508939,31.5531558 5.74244193,30.5033162 6.41585719,29.7795048 L14.4676814,21.1126182 C15.4141209,20.1510376 16.9611211,20.1096375 17.9586017,21.019196 C18.9560824,21.9287544 19.0420944,23.4592261 18.1526944,24.4728185 L10.098511,33.1397051 C9.62451486,33.650022 8.95609134,33.93994 8.25600453,33.9388627 Z" id="Shape"></path>
                <path d="M24.4818159,33.9388627 C23.781856,33.93994 23.1135537,33.650022 22.6396435,33.1397051 L14.5869202,24.4728185 C13.6976814,23.4592261 13.7836779,21.9287544 14.7809777,21.019196 C15.7782775,20.1096375 17.3249973,20.1510376 18.2712652,21.1126182 L26.3239884,29.7795048 C26.997572,30.5036279 27.1747298,31.554024 26.7753582,32.455747 C26.3759866,33.35747 25.4757961,33.9395768 24.4818159,33.9388627 L24.4818159,33.9388627 Z" id="Shape"></path>
                <path d="M47.2936911,49.5507439 C43.2401186,49.5507439 39.821668,46.9312955 38.7592397,43.3627043 L34.4908465,43.3627043 C31.8344745,43.3856378 29.411216,41.8553358 28.2984074,39.4521425 C27.936774,38.6472048 28.0336417,37.7111994 28.5525215,36.9967106 C29.0714013,36.2822218 29.9334628,35.8977974 30.813976,35.9882463 C31.6944892,36.0786952 32.459683,36.6302761 32.8213164,37.4352138 C33.139221,38.0588746 33.7890034,38.4445791 34.4908465,38.4262306 L40.4404449,38.4262306 C40.7022399,38.426276 40.9623541,38.4678966 41.2109973,38.5495262 L41.6779988,38.7007376 C42.6962806,39.0335082 43.384788,39.9803244 43.384889,41.0480053 C43.384889,43.0137547 45.1384795,44.6142702 47.2960261,44.6142702 C49.4535728,44.6142702 51.2094982,43.0137547 51.2094982,41.0480053 C51.2094982,39.6848357 52.3186871,42.0918348 53.6869409,42.0918348 C55.0551947,42.0918348 52.1831962,49.5507439 47.2936911,49.5507439 Z" id="Shape"></path>
                <path d="M55.8219178,27.1510925 C54.4979475,27.1510925 53.4246575,26.0471478 53.4246575,24.6853629 L53.4246575,3.14450696 C53.4246575,1.78272208 54.4979475,0.678777313 55.8219178,0.678777313 C57.1458881,0.678777313 58.2191781,1.78272208 58.2191781,3.14450696 L58.2191781,24.6853629 C58.2191781,26.0471478 57.1458881,27.1510925 55.8219178,27.1510925 Z" id="Shape"></path>
                <path d="M60.6711419,12.2179916 L56.4521457,12.2179916 C55.146921,12.1785865 54.109589,11.1265689 54.109589,9.84227104 C54.109589,8.5579732 55.146921,7.50595554 56.4521457,7.46655044 L60.6711419,7.46655044 C61.9763666,7.50595554 63.0136986,8.5579732 63.0136986,9.84227104 C63.0136986,11.1265689 61.9763666,12.1785865 60.6711419,12.2179916 Z" id="Shape"></path>
                <path d="M67.5732455,43.441748 L53.9336038,43.441748 C52.6577918,43.4023429 51.6438356,42.3503253 51.6438356,41.0660274 C51.6438356,39.7817296 52.6577918,38.7297119 53.9336038,38.6903068 L67.5732455,38.6903068 C68.8490575,38.7297119 69.8630137,39.7817296 69.8630137,41.0660274 C69.8630137,42.3503253 68.8490575,43.4023429 67.5732455,43.441748 L67.5732455,43.441748 Z" id="Shape"></path>
                <path d="M73.9772834,49.5507439 C69.0540046,49.5507439 65.0684932,45.7740015 65.0684932,41.1336749 C65.0684932,39.78424 66.1821526,38.6903068 67.5559212,38.6903068 C68.9296897,38.6903068 70.0433492,39.78424 70.0433492,41.1336749 C70.0433492,43.0796183 71.8063519,44.6640078 73.9725945,44.6640078 C76.1388372,44.6640078 77.8994955,43.0796183 77.8994955,41.1336749 C77.9407729,39.812807 79.0427759,38.7630425 80.3880957,38.7630425 C81.7334155,38.7630425 82.8354185,39.812807 82.8766959,41.1336749 C82.8860736,45.7740015 78.8794624,49.5507439 73.9772834,49.5507439 Z" id="Shape"></path>
                <path d="M47.2649546,49.5507439 C42.3416758,49.5507439 38.3561644,45.7740015 38.3561644,41.1336749 C38.3561644,39.78424 39.4698238,38.6903068 40.8435924,38.6903068 C42.2173609,38.6903068 43.3310204,39.78424 43.3310204,41.1336749 C43.3310204,43.0796183 45.0940231,44.6640078 47.2602658,44.6640078 C49.4265084,44.6640078 51.1871667,43.0796183 51.1871667,41.1336749 C51.2284441,39.812807 52.3304472,38.7630425 53.6757669,38.7630425 C55.0210867,38.7630425 56.1230898,39.812807 56.1643671,41.1336749 C56.1737448,45.7740015 52.1671336,49.5507439 47.2649546,49.5507439 Z" id="Shape-Copy"></path>
                <path d="M89.1145925,43.441748 L80.93442,43.441748 C79.5605681,43.441748 78.4468411,42.3528353 78.4468411,41.0095933 C78.4468411,39.6663513 79.5605681,38.5774385 80.93442,38.5774385 L89.1145925,38.5774385 C90.1059237,38.5761757 90.9092344,37.790763 90.9105261,36.8215191 L90.9105261,31.5170836 C90.9127624,30.6466277 90.5590728,29.8114034 89.9281551,29.1972526 C87.690126,27.0048142 84.8321747,25.5174615 81.7221924,24.9266548 L76.5641588,23.9432482 C73.9858957,23.4552553 71.6983472,22.0164566 70.1752307,19.9248059 L69.5961242,19.1339545 C68.6940578,17.8968154 67.5525991,16.8446508 66.2363686,16.037026 C65.4825008,15.575128 65.0379333,14.7550937 65.0701304,13.8858222 C65.1023275,13.0165507 65.6063978,12.2301049 66.3924627,11.8227314 C67.1785277,11.415358 68.1271654,11.4489465 68.8810332,11.9108445 C70.7472199,13.0547167 72.3658202,14.5453547 73.6451806,16.2983509 L74.2242871,17.0892023 C75.0106289,18.164955 76.1901394,18.9036791 77.518395,19.152293 L82.6764287,20.1356996 C86.7594358,20.9100328 90.5117091,22.8621331 93.4496854,25.7404295 C95.0180837,27.2644742 95.8970558,29.339059 95.8903731,31.5010373 L95.8903731,36.8054728 C95.8928622,38.5642816 95.1801612,40.2519208 93.9092534,41.4966621 C92.6383457,42.7414034 90.9134829,43.4411413 89.1145925,43.441748 Z" id="Shape"></path>
            </g>
        </g>
    </g>
</svg>